<?xml version="1.0" encoding="UTF-8"?><svg id="a" xmlns="http://www.w3.org/2000/svg" viewBox="0 0 191.41 237.36"><defs><style>.b{fill:#fff;}.c{fill:#0e5696;}.d{fill:none;stroke:#000;stroke-miterlimit:10;stroke-width:2px;}.e{opacity:.8;}</style></defs><g class="e"><polygon class="c" points="141.9 191.48 91.26 208.05 41.38 196.75 41.38 71.39 66.61 51.06 67.36 40.14 116.02 24.98 116.3 33.74 141.9 66.49 141.9 191.48"/><path class="c" d="M46.86,188.93l.06-2.07v3.97l-.08,1.56,1.59,.49c.18,.05,.14,.06,.71,.2l1.31,.34,2.62,.68c-.83-.3-1.67-.6-2.51-.9l-1.27-.45-.32-.11-.16-.06-.04-.03-.16-.11c-.41-.3-.68-.56-.86-.78,.14-.41,.27-.73,.38-.99l.08-.18,.04-.08,.04-.57,.12-2.29c.14-3.04,.18-6.05,.1-8.95-.17-5.81-.87-11.21-2.41-15.71,2.12-1.27,3.11-15.94,2.59-16.24-.39-3.05-.71-6.13-.97-9.25,.15,2.15,.32,4.28,.52,6.4-.2-2.12-.37-4.25-.52-6.4-.82-9.86-1.05-20.14-.98-30.73,.04-5.29,.15-10.67,.31-16.1l.26-8.19,.15-4.13,.08-2.07,.04-1.03,.04-.22c.02-.14,.04-.29,.07-.56l.55-.33,.07-.04,.03-.02s.02-.01,.09-.07l.68-.52,1.43-1.09,6.34-4.88,6.99-5.4,3.59-2.77c2-1.57,3.99-3.13,5.96-4.67l.44-5.39,.17-1.93,.12-1.26c.06-.17,.11-.31,.16-.41,.12,0,.23,0,.32,0l.12,.02,1.37-.37,5.2-1.39,5.3-1.43-5.95,1.45c7.17-2.83,13.65-5.42,19.98-7.78-1.22,.06-1.51-.16-4.32,.28l3.34-.83c2.73-1.77,9.64-3.89,12.77-5.25-.56,.66,2.02-.05,4.3-.69h-.98l1.59-.48-5.66-4.03,.11,4.33,.21,5.85,6.4,8.01c1.79,2.24,3.51,4.39,5.04,6.38,.69,.88,1.07,1.65,1.25,2.14l5.01,5.83c-.85-.08,3.49,5.35,.93,2.7,1.41,1.39,2.71,2.88,3.98,4.39l1.88,2.27,.17,.2,.1,.12,.21,.23,.43,.47c.04,.37,.09,.75,.15,1.15,.07,.82,.16,1.74,.28,2.59,.09,19.58,.56,40.42,1.6,60.66l.23-.5c.41,7.09,1.63,13.33,1.22,21.95,.82,6.15,1.26,14.9,2.55,17.35,.18,7.1,.82,9.93,1.16,16.89,.64-1.79,.77,6.76,1.27,3.34,.89-4.62,.13-4.87,.85-8.79l-.21,.12c.96-18.29,1.51-36.61,1.8-55.15-.54-12.37-.1-25.79-.26-38.66-.17-8.06-.35-16.47-.52-24.44-.88-1.08-1.75-2.16-2.61-3.22l-1.66-2c-1.02-1.21-2.02-2.4-3-3.57-1.97-2.33-3.87-4.56-5.65-6.66-1.89-2.12-2.73-4.06-3.98-6.15-1.56-1.89-3.18-3.91-4.86-6.01l-4.08-5.14-.27-6.99-.27-7.1-6.7,2.14c-3.97,1.27-7.92,2.56-11.7,3.85l.58-.16c-6.22,2.05-11.1,2.88-17.17,4.89,.08,.16-.86,.47-1.29,.7-.33-.12-2.78,.65-6.28,1.87l-5.92,2.11-1.64,.6-2.73,.94-5.45,1.89-.33,8.95c-.06,2.29,.01,2.49,.02,3.42l-1.11,1.08-2,1.73c-1.2,1.02-2.02,1.67-2.32,1.83-.49,.45-1.01,.91-1.54,1.37-2.84,2.16-5.76,4.27-8.68,6.34l-4.38,3.08-1.09,.76-1.65,1.22-3.5,2.6-.15,3.81-.07,1.92-.03,.78-.03,.57-.23,4.51c-.12,2.96-.19,5.82-.15,8.55,.4,2.52,.75,5.35,1.2,7.46-.36,2.05,.34,2.44,.24,4.91-1.7,6.27-.99,9.94-.39,6.7,.23,5.16,.08,10.33,.14,14.91l.4,6.38c.14,1.82-.11,2.83-.51,3.75,.24,4.66-.18,3.28-.35,8.17-.59,1.18,.94,12.25,.76,13.63l-.09-.8c-.1,5.65-1.25,9.4-1.3,14.92-.13,4.51-.18,9.13-.2,13.78l.03,18.57c4.72,1.06,9.37,2.1,13.91,3.12,3.04,.69,6,1.37,8.84,2.06,.27-.58-3.09-.56-3.07-1.4,8.15,1.96,16.22,4.57,24.44,6.54,1.45,.5,3.2,1.22,3.84,1.56,2.58,.82,1.62,.06,3.53,.58l.14,.61,.37,.03,.63,.11c.43,.08,.85,.16,1.24,.25,.79,.18,1.52,.38,2.23,.58,1.28-.32,2.48-.57,3.8-.89l.25-.06,.15-.03,.26-.05c.18-.04,.36-.08,.54-.13,.37-.1,.75-.23,1.16-.4,.07-.26,1-.6,1.93-.88,.23,.55,2.82-.97,2.85-.4v-.05c.57-.17,.95-.34,1.66-.46,.99-.54,10.35-5.32,11.33-5.91l.53-.07c1.47-.5,1.96-1.13,1.07-.95l1.83-.56-.2,.11,1.82-.56c.35-.06,.81,.08,.38,.5,.96-.53,2.08-1.02,3.14-1.25-2.97,.58-6.67,1.25-9.84,1.65,1.16-.6,3.47-1.02,4.78-1.51,1.71-.14,5.07-.89,7.7-1.47,.55-.22,.72-.97,2.08-1.11,.76,.23,1.42-.48,2.58-.51-1.13,.63-2.35,.91-3.58,1.29,.38,.45,3.1-.63,4.11-.8,.4-.31,2.82-.92,4.26-1.54-.49,.71,1.3-.08,2.27-.1,1.02-.27,1.6-.68,1.13-.72,.15-.64-4.09,.98-2.88-.04,.45,.14,2.39-.59,3.43-.96-.08-.3-.79,.01-.2-.49,1.2-.32,2.33-1.08,3.1-1-.19,.15-.69,.26-1.04,.36,1.54-.47-7.66,4.63-5.74,3.81-.6-.09,8.14-4.59,7.12-4.27-.98,.16,.49-.75-.5-.53l-.96,.71c-1.35,.32-2.06-.01-1.67-.37,2.23-.68-5.62,4.06-3.83,3.14l-.81,.11c.74-.45,2.82-1.32,3.75-1.28-.09-.29,.96-.75,1.82-1.14l.33-.06c.88-.45,2.19-.8,1.46-.99-5.41,1.82,2.6-4.11-2.7-2.56,2.41-.08-.53,.9-2.81,1.73-.29-.14-1.43-.13-3.14,.25-1.42,.52-.77,.51-.99,.76-.85,.12-2.41,.5-2.32,.09-.99,.77-1.88,.33-3.18,.91-1.12,.57,.14,.15-.64,.62-1.79,.54-4.31,1.3-5.75,1.68-.65-.14-2.5-.15-1.45-1.04,2.72-.82-.77,1.14,2.01,.11-1.45-.33,2.42-1.01,2.75-1.72-1-.03-2.82,.56-4.3,1.14h.33c-1.3,.53-3.93,1.55-5.5,1.64,.26-.36-.44-.35,.53-.73l-1.86,.55c-.21,.16-.42,.32,.13,.2-.8,.48-1.71,.65-2.42,.72-.29-.2-9.42,4.33-9.17,4.06-1.32,.44-1.78,.14-2.98,.84-.07,.26,12.37-5.06,10.65-4.4-1.23,.08-14.58,6.25-15.57,6.02-.99,.35-2.11,.78-1.82,.98-.84,.2-.72,.02-.58-.19,.15-.21,.32-.44-.22-.41-.02,.05,.11,.11-.23,.22l-.51-.02-.52-.31c-1.08-.02-2.79-.44-4.42-.82-1.64-.39-3.31-.76-4.75-.79,.87-.12,1.9-.44,3.75-.31l.28,.22c.27-.03,1.76,.21,1.78-.08-1.65-.57-3.11-.85-4.95-.98-.31-.15-.68-.31-.92-.45,0,.04,.02,.07,0,.12-.54-.31-.48-.32-.24-.38,.03-.01,.07-.03,.14-.04-.88-1.06-6.76-.99-9.76-2.11-.94-.09-.12,.12-1.29,.02-3.09-1.04-5.21-1.78-8.47-2.72-1.13,.11-1.25,.23-.06,.89l-2.47-.68c2.48-.42-4.46-1.95-1.74-2.32-.68-.38-2.17-.76-3.6-.93-.19,.2-.5,.53-2.26,.13l-2.04-.73-.65-.24c-.24-.09-.69-.25-.84-.36-.14-.35,.25-.39,.27-.65-.71,.05-.97-.19-1.08-.43-.13-.25-.14-.51-.65-.6h-.07c-.09-.58-.14-1.76-.67-1.78,0-.14,.01-.23,.03-.38,.01-.24,.03-.45,.06-.63,.05-.35,.12-.59,.2-.73,.16-.29,.37-.22,.6-.1Z"/></g><polygon class="d" points="141.9 189.22 91.26 205.79 41.38 194.49 41.38 69.13 66.61 48.8 67.36 37.88 116.02 22.72 116.3 31.48 141.9 64.23 141.9 189.22"/><path class="d" d="M116.3,31.48l-49.53,17.26c-.08,.03-.11,.12-.06,.19l24.34,31.96c.07,.09-.01,.22-.13,.19l-48.78-11.78c-.22-.05-.23-.36-.02-.43l31.63-10.67"/><polyline class="d" points="141.9 64.23 91.26 81.18 91.26 205.79"/><g><g><ellipse class="b" cx="110.03" cy="50.24" rx="5.05" ry="8.05" transform="translate(-5.44 86.25) rotate(-41.86)"/><path class="b" d="M113.06,53.7l.06,.03c-.21-.15-.72-.36-1.44-.45,.79,.1,1.38,.38,1.52,.5,.1,.07,.04,.07-.07-.2,0-.02-.04-.08-.06-.16-.01-.06-.06-.21-.1-.37-.04-.26-.1-.7-.08-.69,0-.27-.03-.68,.03-.99-.03,.23-.05,.46-.04,.71-.01-.24,0-.47,.04-.71l.02-.22v-.11s0,.03,0,.04c-.02,.08-.03,.17-.05,.23-.06,.12-.13,.21-.2,.27-.16,.11-.33,.08-.49-.03-.32-.23-.51-.82-.59-1.42-.06-.31-.26-.79-.36-1.3-.09-.5-.07-.97,.13-1.26,.04-.08,.09-.15,.13-.21-.15,.15-.15,.15-.27,.31-.61,.08-1.19,.11-1.6,.03-.28,.13-.56,.23-.91,.48,.05-.07,.09-.13,.14-.19-.87,.17-.92-.14-1.3-.19,.46-.06,.52-.18,.59-.25l-.3,.07c.14-.32-.2-.53-.14-.54,0,0,.03,0,.01,0h-.05l-.08-.03c-.09-.03-.2-.07-.29-.11-.06-.02-.13-.05-.19-.08l-.12-.07s-.05-.02,0,0c-.2-.12-.15-.11-.15-.1,0,0,.08,.12,.09,.18,.08,.16,.09,.23,.15,.44,0-.02,.03-.18,.18-.29,.28-.25,.86-.52,1.63-.75l.06-.22c.54-.23,1.57-1.05,1.92-.35,.84-.43,1.69-.32,2.71-1.14,.61,.31,1.26,.02,1.98,.3,.35-.56,1.03-.03,1.17-.6,.31-.97-.27-.48-.06-1.3l-.14,.16c-.8-2.14-2.38-4.02-4.8-5.27-.97-.05-1.87-.31-2.96-.47-.51-.1-1.13-.14-1.71-.16-.63,.02-1.24,.04-1.91,.23-1.38,.37-2.94,1.2-4.03,2.41-1.11,1.19-1.72,2.61-1.9,3.77-.01,.55-.64,.74-1.04,1.13-.21,2.06-.21,4.25,.58,5.74,0-.03,0-.06,0-.08,.33,.79-.07,1.62,.37,2.34,.16-.08,.23,.03,.34,.05-.36,.24,.55,1.17,1.57,1.82,1.01,.69,2.1,1.13,1.99,1.38,.08,.03,.15,.06,.22,.11,.34,.67,.52,1.57,.81,2.42,.3,.84,.72,1.63,1.38,1.98,.49-.16,.98-.27,1.42-.53,.03,.44,.42-.15,.64,.07-.09,1.88,.74,1.43,.57,.71,.68,.06,1.26,.43,1.87,.55,.32-.05,.63-.11,.94-.19,.26-.09,.37,.17,.44,.59,.72-.15,.43,.26,1.23,.47,.08,.3,.61,.09,1.12-.25,.5-.31,.97-.77,1.1-.7l-.12,.11c.93-.08,2.09,.73,3.25,.13,1.63-.71,3.01-2.28,3.67-3.86,.69-1.59,.82-3.04,.95-4.24-.61-.05,.11,.55-.71,.53,.19-1.33,.79-2.71,.59-3.95,.11-.25,.33-.59,.49-.75,.11-.45-.35-.14-.36-.44l.52-.22c-.57-.25,.37-.79,0-1.09-.22,.06-.3-.06-.33-.2,.55-.24-.21-.37,.29-.57h-.04c-.03-.07-.09-.1-.04-.24-.13-.02-.72-.22-1.31-.33-.6-.12-1.18-.2-1.33-.2l.05-.11c-.12-.16-.54,0-.57,.15l-.1-.21h.05l-.1-.21c.02-.06,.23-.26,.48-.34-.25,0-.42-.06-.41-.23-.1,.52-.29,1.17-.64,1.79-.25-.03-.12-.41-.26-.51,.23-.37,.3-.9,.33-1.31-.07-.04-.64,.31-.49,.02,.32-.33-.12-.13,.07-.43,.29-.03,.29,.16,.36,.3,.42-.34,.07-.52,.12-.71-.17,.06-.21-.3-.45-.35,.46-.26,.16-.33,.3-.59-.04-.14-.25-.07-.36,.09-.46,.34,.06,.6-.51,.85,.18-.21-.05-.34-.15-.42-.24,.2-.12,.22-.4,.35-.04-.15-.42-.02-.23-.29,.08-.04,.08,.04,.1,.08-.12-.19,2.21-.51,1.92-.57-.19,.2-2.12,.33-2.04,.45-.04,.18-.46,.31-.47,.47l.36-.15c.02,.2-.36,.59-.55,.69-.14-.24,2.09-.79,1.71-.75l-.05,.17c-.22,.05-.52-.04-.34-.32-.23,.2-.4,.17-.55,.16v-.06c-.17,.02-.22-.15-.47,.18,.23,.23-.43,.65-1.1,1.11-.67,.46-1.34,.95-1.24,1.2,.37-.61,.57-.4,.78-.27-.16,.16-.35,.46-.39,.69,.13,.07,.24-.09,.4-.18-.07,.15-.08,.35-.38,.55,.4-.17-.12,.3,.07,.31,.22-.03,.14-.11,.35-.17,.07,.16,.16,.39,.16,.55-.25,.23-.66,.67-1.15,.87-.06-.23,.75-.39,.52-.53-.57,.51-.29-.07-.79,.23-.23,.26-.16,.38-.01,.43l.07-.08c.14,.04,.4,.14,.12,.45-.24,.12-.39,.26-.48,.23l.03,.15c.08-.03,.16-.06,.2-.12,.21-.05,.14,.07,.03,.2-.25,.13,1.42,.13,1.25,.22,.06,.1-.32,.3-.01,.28,.11-.04-.23-.19-.56-.29-.35-.1-.69-.14-.62-.11-.12,.12,.34,.19,.76,.33,.43,.13,.82,.32,.58,.45,.05,.07,.14,.14,.4,.02-.08,.18-.53,.15-.74,.34,.04-.01,.13-.06,.13-.02l-.31,.21c.5,.05,.01,.5,.65,.55-.32,.02-.86,.09-1.17,.06l.14-.06c-.09,0-.21-.06-.48,.03-.15,.16-.08,.23,.23,.27-.07,.04-.14,.08-.21,.12l.11-.03c-.17,.08-.19,.08-.3,.1h-.06c-.81,.25,.62,.28,.2,.55,.12,.04,.14-.02,.31,.03-.3,.23-.56,.36-.74,.51,.36,.04,.51,.06,.88-.02-.04,.05-.07,.1-.11,.14-.95-.1-.94,.15-1.88,0-.22,0-.27,.02-.11,.07,.24,.03,.63,.09,.62,.12-.33,0-.21,0-.51-.03l-.47-.11c.3,.08,.22,.04,.47,.13,.18,.08,.32,.12,.34,.14,.13,.07,.13,.08,.12,.07Z"/></g><g><path class="b" d="M115.4,56.23l-5.37,5.32s-11.92-2.12-11.78-12.56l6.41-4.74"/><path class="b" d="M108.64,55.17l-.06-.08c.07,.02,.13,0,.2,.03,.07,.03,.16,.09,.26,.15-.46-.87-.73-1.81-.81-2.03-.08-.19,.02,.49-.11,2.63-.13-2.37-.06-3.43-.11-2.88-.06,.4-.15,.72-.24,.97,.06-.14,.11-.31,.16-.51-.05,.2-.1,.37-.16,.51-.29,.79-.64,.89-.8,.7-.09-.09-.12-.24-.16-.47-.07-.25-.2-.54-.21-.84-.07-.56,.19-1.03,.76-1.31l.2-.09q-.18,.08-.36,.17c-.55,.23-1.14,.34-1.57,.35-.31,.1-.61,.18-1.01,.37l.17-.13c-.96,.18-.99-.05-1.43-.09,.51-.06,.58-.15,.63-.22l-.32,.07c.1-.26-.36-.57-.36-.83,0-.04,.19-.04,.37-.04-.16-.09-.31-.18-.45-.28,.72,.12,.62-.08,1.08,.1-.86-.31-.35-.35-1.24-.77l-.03-.13,.06-.09c.04-.06,.07-.12,.1-.19,.06-.13,.1-.29,.12-.47,.05-.36,.04-.82,.02-1.45l-.2-.14c-.06-.46-.6-1.58,.1-1.6-.22-.86,.06-1.61-.59-2.73,.29-.43,.06-1.07,.24-1.62-.48-.44-.09-.9-.57-1.15-.79-.53-.35,.09-.99-.33l.13,.17c-.39,0-.77,0-1.14,.04-.18,.02-.36,.04-.54,.06l-.26,.04c-.12,.04-.26,.1-.39,.14-1.06,.42-2.12,.94-3.16,1.53-.2,.32-.45,.59-.73,.84-.26,.26-.46,.53-.73,.78-.51,.5-1.07,1-1.47,1.55-.2,.3-.4,.61-.58,.91l-.13,.23c-.04,.08,.04,.2,.05,.3l.18,.63c.25,.83,.53,1.6,.83,2.26,.22,.31-.29,.47-.55,.72,.22,.6,.32,1.27,.44,1.95,.23,.67,.47,1.37,.83,1.97,0-.02,0-.05,0-.07,.08,.16,.1,.33,.11,.49,.03,.16,.03,.32,.03,.48,0,.32,.02,.66,.23,.97,.17-.07,.23,.03,.34,.04-.18,.1-.06,.36,.23,.68,.31,.31,.84,.63,1.34,.94,.97,.65,2.09,1,1.97,1.24,.08,.02,.15,.05,.22,.09,.17,.31,.28,.69,.4,1.08l.41,1.21c.2,.76,.49,1.4,.98,1.65,.44-.18,.89-.3,1.31-.57,0,.43,.4-.17,.58,.05-.18,1.83,.55,1.42,.46,.69,.3,.03,.55,.15,.79,.28,.25,.11,.48,.24,.71,.31,.25-.03,.49-.06,.73-.11,.21-.06,.24,.23,.24,.67,.52-.07,.29,.29,.77,.64,.01,.32,.38,.2,.73,.01,.35-.19,.67-.46,.74-.35l-.08,.07c.54,.26,.93,1.57,1.56,1.74,.43,.2,.87,.35,1.31,.46,.22,.06,.44,.11,.67,.15l.33,.06c.05,0,.11,.03,.16,.02l.13-.11c.69-.57,1.35-1.15,2.02-1.54-.23-.62-.23,.35-.54-.45,.73-.44,1.82-.22,2.62-.93,.22,.02,.56,.12,.73,.23,.38-.05-.02-.4,.2-.5l.35,.44c0-.64,.77,.12,.89-.33-.13-.19-.05-.31,.05-.38,.38,.46,.26-.31,.6,.12l-.03-.04c.06-.05,.08-.12,.22-.11-.01-.13-.04-.75-.11-1.34-.18-.48-.38-.95-.44-1.07l.09,.04c.06-.09-.22-.43-.33-.47l.12-.07,.02,.04,.12-.07c.05,.02,.27,.2,.43,.41-.09-.2-.11-.34,.01-.31-.41-.12-.95-.31-1.53-.58-.08-.21,.26-.09,.28-.21,.36,.2,.76,.27,1.08,.33,0-.05-.44-.54-.17-.4,.35,.29,.06-.08,.35,.1,.11,.24-.03,.22-.11,.26,.39,.37,.41,.11,.57,.17-.1-.14,.15-.14,.12-.32,.33,.4,.3,.17,.54,.33,.1,0-.02-.19-.17-.3-.38-.42-.44-.04-.79-.53,.21,.18,.25,0,.28-.06-.22-.22-.2-.13-.37-.37,.11-.01-.09-.34,.17-.15,.05,.07-.01,.06-.04,.07,.1-.06,.99,1.85,.97,1.62-.22-.17-.84-1.74-.91-1.71-.15-.06-.36-.43-.48-.46l.21,.32c-.15-.01-.56-.37-.68-.55,.15-.08,1.16,1.82,1.04,1.5l-.14-.07c-.1-.18-.11-.42,.16-.23-.21-.22-.23-.35-.27-.47l.05,.02c-.06-.16,.06-.17-.26-.43-.24,.31-2-2.38-2.39-2.24,.59,.37,.45,.53,.38,.7-.17-.15-.46-.34-.67-.38-.04,.11,.13,.22,.24,.35-.15-.07-.32-.08-.55-.34,.24,.36-.28-.1-.25,.07,.08,.2,.13,.13,.23,.31-.12,.06-.29,.14-.42,.16-.26-.21-.76-.54-1.06-.97,.19-.09,.54,.65,.6,.43-.6-.48-.02-.27-.4-.71-.29-.2-.38-.11-.39,.04l.09,.06c0,.14-.02,.39-.38,.17-.17-.21-.34-.32-.34-.41l-.13,.06c.05,.07,.1,.15,.17,.16,.1,.19-.02,.15-.17,.07-.22-.18,.35,1.32,.23,1.19-.06,.07-.35-.23-.23,.05,.16,.16-.06-1.3-.08-1.15-.15-.07-.07,.35-.02,.75,.05,.41,.04,.83-.14,.64-.03,.06-.06,.17,.13,.39-.17-.03-.31-.46-.52-.63,.03,.04,.09,.11,.07,.12l-.27-.24c.14,.49-.35,.16-.16,.79-.13-.31-.38-.82-.47-1.13l.1,.12c-.04-.09-.04-.23-.2-.47-.17-.1-.19,0-.1,.3l-.16-.17,.06,.1c-.12-.14-.13-.16-.18-.27l-.03-.06c-.47-.72,.04,.7-.29,.42,.02,.14,.06,.14,.1,.33-.27-.2-.45-.38-.64-.47,.11,.4,.16,.55,.36,.88l-.14-.03c-.31-1.05-.5-.79-.79-1.86-.1-.21-.15-.22-.13-.03,.08,.26,.21,.67,.16,.72-.18-.28-.12-.17-.27-.45-.11-.33-.13-.49-.21-.76,.06,.51-.27-.7-.29-.59,0,.13-.06,.24,.08,.88-.08-.04-.17-.51-.26-1.03Z"/></g></g><ellipse class="d" cx="110.03" cy="50.24" rx="5.05" ry="8.05" transform="translate(-5.44 86.25) rotate(-41.86)"/><path class="d" d="M115.4,56.23l-5.37,5.32s-11.92-2.12-11.78-12.56l6.41-4.74"/></svg>