<?xml version="1.0" encoding="UTF-8"?><svg id="a" xmlns="http://www.w3.org/2000/svg" viewBox="0 0 191.41 237.36"><defs><style>.b{fill:#f5d7ae;}.c{fill:#8e8e8e;}.d{fill:none;stroke:#000;stroke-miterlimit:10;stroke-width:2px;}</style></defs><g><path class="b" d="M63.13,103.8s6.64,58.81,10.33,63.04c2.02,2.32,7.6,11.22,27.74,8.96,0,0,27.48-1.88,30.31-16l6.13-48.28"/><path class="b" d="M62.97,144.67l.05,.75c-.41-2.4-.6-4.96-.73-7.48-1.09,5.67-1.71,12.43,2.98,15.96-2.03,.8-1.97,6.38-1.4,6.41,.62,1.06,1.18,2.13,1.74,3.28-.37-.8-.7-1.55-1.08-2.31,.38,.76,.71,1.51,1.08,2.31,.46,.99,.92,1.98,1.39,2.97l.45,.98,.58,1.06c.17,.36,.43,.68,.67,1l.18,.24c0,.12,.11,.17,.16,.26l.39,.46c.57,.61,1.14,1.22,1.72,1.84,.6,.62,1.23,1.23,1.89,1.83,1.34,1.17,2.76,2.32,4.31,3.26,3.06,1.95,6.44,3.34,9.86,4.24,.65,.2,1.41,.3,2.3,.48,.44,.08,.91,.17,1.4,.24l1.51,.16,1.62,.16c.55,.04,1.1,.05,1.67,.07,1.13,.03,2.33,.09,3.41,.04l3.26-.08c1.16-.04,2.22-.11,3.23-.18,2.01-.17,3.78-.31,5.03-.42,.73-.07,1.45-.15,2.19-.26q-1.24,.09-2.47,.14c2.88-1.16,5.42-2.39,7.88-3.59-.55-.15-.72-.38-1.9-.47,.45-.06,.9-.14,1.35-.21,.91-1.2,3.58-2.18,4.66-3.1-.08,.55,.94,.17,1.84-.2l-.48-.1c1.67-.73,3.41-1.81,4.99-3.11,1.59-1.3,3.01-2.84,4.14-4.35,.29-.44,.66-.68,.93-.8,.56-1.12,.99-2.32,1.3-3.54,.26,.24,.63-.47,.87-1.04,.27-.63,.46-1.08,.4-.02,0-.42,.06-.83,.04-1.26v-.3l-.02-.2v-.39c-.02-.52,.01-1.04,.04-1.56,.06-1.03,.11-2.05-.14-3.08,.8-7,1.27-14.5,1.17-21.86l-.25,.15c-.09-2.58-1.01-4.96-.22-7.99-.54-2.3-.57-5.48-1.74-6.51,.15-2.56-.37-3.65-.38-6.18-.71,.56-.46-2.51-1.1-1.35-1.09,1.54-.35,1.72-1.24,3.03h.22c-1.78,6.39-3.15,12.86-4.29,19.44-.02,4.48-1.07,9.22-1.49,13.83-.2,2.49-.37,5.08-.48,7.59-.05,1.26-.09,2.49-.14,3.68-.01,.19,0,.16,.01,.24,.01,.05,0,.1,0,.16l-.02,.44c-.05,.31-.09,.63-.17,.94-.11,.63-.82,.75-1.36,.98-.6,1.03-1.77,2.13-3.27,3.13-1.52,.99-3.32,1.88-5.09,2.74,.07-.02,.14-.04,.19-.05-1.92,.85-3.64,.69-5.63,1.31,.05,.17-.26,.26-.39,.39-.27-.36-3.18,.8-6.31,1.73-.78,.23-1.56,.46-2.3,.65-.38,.1-.71,.18-1.06,.26l-1.05,.22c-1.27,.27-2.2,.42-2.4,.31-.22,.05-.45,.09-.68,.11-1.12-.1-2.26-.18-3.33-.48-.53-.13-1.07-.27-1.6-.4-.52-.16-1.01-.35-1.51-.52-1.01-.3-1.88-.77-2.76-1.07-.82-.4-1.65-.67-2.37-.95-.81,.16-1.63,.1-2.39,.25-.32-.6-.75-.05-1.32-.49-.13-.61-.27-1.05-.43-1.35-.15-.32-.29-.52-.44-.61-.29-.18-.53,.04-.38,.55-.29-.15-.55-.35-.8-.56-.25-.2-.49-.43-.71-.67-.23-.23-.44-.5-.66-.75-.21-.25-.41-.5-.61-.73l-.12-.13c-.13-.1-.29-.2-.41-.33-.14-.13-.24-.23-.4-.47-.3-.42-.15-.85,.16-1.22-.32-.66-.33-.97-.31-1.25,.03-.3,.09-.6,0-1.43,.48-.48-1.8-3.94-1.71-4.47l.14,.26c-.27-1.97,.63-3.48,.35-5.41-.48-5.42-1.79-11.27-2.29-16.32-.62,.04,.29,1.09-.51,1.26-.31-2.98,.04-6.08-.25-9.1,.09-.56,.32-1.27,.48-1.54,.11-.99-.37-.53-.38-1.24l.54-.17c-.59-.97,.42-1.58,.07-2.52-.23-.02-.31-.37-.33-.72,.59-.09-.18-1.05,.37-1.07h-.05c-.02-.21-.07-.35,0-.62-.26-.36-2.34-3.85-2.64-4.22l.07-.2c-.09-.55-.55-.73-.62-.4l-.05-.69,.05,.07-.05-.68c.04-.13,.29-.31,.58-.15-.25-.36-.42-.78-.36-1.17-.24,1.11-.59,2.5-1.05,3.69-.26-.43-.05-1.3-.17-1.79,.32-.64,.5-1.9,.66-2.89-.06-.2-.74-.27-.5-.78,.43-.29-.08-.53,.2-.97,.3,.42,.24,.88,.27,1.34,.53-.14,.23-1.16,.34-1.54-.19-.15-.12-1.06-.33-1.59,.54,.18,.28-.49,.52-.85,.02-.38-.22-.6-.38-.42-.58-.06-.16,1.53-.81,1.08,.26-.17,.08-.89,0-1.28-.31,.03-.2,.3-.52,.07,.02-.45-.41-.87-.12-1.16,.09,.07,.06,.26,.07,.39-.04-.58,2.36,2.87,2.1,2.15-.25,.22-2.2-3.05-2.17-2.66-.11,.36-.58-.18-.65,.18l.42,.36c-.06,.51-.57,.77-.8,.62-.05-.83,2.36,2.11,1.97,1.44l-.11,.3c-.23-.28-.5-1.06-.21-1.4-.3,.03-.46-.36-.6-.68l.04-.12c-.19-.33-.18-.81-.55-.55,.28,2.02-3.23-.98-3.18,1,.57-.9,.72,.2,.9,1.06-.22,.11-.51,.54-.61,1.18,.12,.53,.28,.29,.46,.37-.12,.32-.17,.91-.53,.87,.47,.37-.19,.71,.02,1.19,.25,.42,.18-.05,.42,.24,.04,.67,.09,1.62,.07,2.16-.3,.25-.81,.94-1.38,.55-.05-1.02,.88,.29,.64-.76-.7,.55-.32-.91-.91-1.03-.3,.38-.22,1.06-.06,1.62l.09-.13c.16,.49,.44,1.48,.1,2.07-.28-.1-.45,.17-.56-.2l.03,.7c.09,.08,.19,.16,.23-.05,.25,.3,.17,.64,.05,.91-.27,.11,1.63,3.53,1.45,3.44,.07,.5-.33,.67,.01,1.12,.23,.02-1.56-4.64-1.38-4-.26,.47,2.11,5.47,1.62,5.85,.07,.37,.18,.8,.46,.68-.06,.64-.57-.12-.77,.36,.05,0,.14-.05,.15,.09l-.3,.47c.57,.91,.18,2.41,.89,3.34-.35-.25-.93-.52-1.29-1.13l.13-.13c-.1-.08-.27-.61-.55-.55-.11,.64,.01,1.17,.38,1.79-.06,.13-.12,.28-.18,.39,.04,0,.07-.02,.11-.02-.15,.24-.18,.22-.3,.15-.02,0-.05-.02-.07-.04-.78,.5,.85,2.37,.57,3.56,.16,.32,.15,.01,.36,.41-.17,1.2-.31,2.04-.34,3.27,.41,.34,.56,.35,.87-.17v.93c-1.06-.7-.66,1.84-1.73,1.05-.18,.3-.15,.85,.08,1.34,.25,.02,.64,.04,.74,.69-.19,.94-.1,.71-.3,1.5-.29,.22-.45-.03-.69,.03,.57,1.09-.53,1.1-.31,2.18,.19,.67,.43,2,.98,1.95,.12,.92-.28,.98-.74,.96Z"/></g><g><path class="b" d="M144.12,105.97l-23.72-22.4s-3.76-4.14-13.36-1.69l-44.99,8.28s-10.16,1.88-3.01,9.04l14.87,16.75s6.51,7.15,21.79,3.95l40.51-8.09s9.98-1.51,7.91-5.84Z"/><path class="b" d="M106.86,76.31l-.91,.14c.75-.16,1.41-.35,2.27-.46,.85-.12,1.71-.23,2.61-.24,1.78-.06,3.66,.06,5.55,.51-2-.83-4.18-1.32-6.3-1.45-.55-.05-1.05-.04-1.58-.04-.53,0-1.07,.02-1.5,.06-.45,.04-.91,.09-1.35,.14-.43,.05-.81,.08-1.2,.13-3.14,.43-5.96,1.54-7.88,3.92-.95-1.98-6.99-1.87-7-1.34-1.13,.6-2.3,1.14-3.49,1.63,.83-.31,1.64-.63,2.45-.98-.8,.35-1.62,.68-2.45,.98-3.77,1.53-7.82,2.51-12.06,3.21-2.12,.35-4.28,.63-6.48,.88-2.24,.22-4.5,.45-6.79,.68-1.09,.18-2.05,.41-3.36,.88-1.26,.51-2.81,1.13-4.64,2.88-.89,.88-1.86,2.18-2.42,3.86-.58,1.68-.61,3.57-.3,5.05,.3,1.53,.83,2.66,1.36,3.63l.41,.7,.41,.61c.28,.43,.55,.76,.83,1.12,.31,.39,.49,.59,.73,.87,.25,.28,.4,.48,.59,.72,.36,.45,.71,.9,1.06,1.34,.7,.89,1.37,1.75,2.01,2.56,1.26,1.63,2.35,3.07,3.08,4.12l1.31,1.79-1.35-2.1c2.47,1.93,4.75,3.67,6.83,5.46-.09-.56,.07-.82-.37-1.95l.77,1.18c.75,.18,1.6,.82,2.42,1.52l.3,.26,.44,.41c.3,.26,.63,.52,.94,.74,.56,.39,1.07,.67,1.48,.84-.58,.17,.53,1.06,1.57,1.68-.09-.17-.19-.32-.27-.49,1.94,1.21,4.23,2.01,6.46,2.48,2.23,.43,4.4,.6,6.26,.66,.52,.03,.91,.2,1.14,.35,1.19-.15,2.37-.29,3.5-.56-.21,.66,2.97,.22,1.34,.8,1.24-.54,2.55-.86,3.73-1.15,1.13-.3,2.24-.6,3.26-1.19,7.8-1.65,16.02-3.77,23.89-6.4l-.24-.19c2.75-.97,5-2.66,8.52-2.95,1.12-.63,2.5-1.23,3.71-1.84l.09-.04c1.25-.58,2.22-1.3,2.48-2.05,1.27-.46,2.04-1.03,2.6-1.61,.27-.29,.49-.59,.58-.84,.04-.12,.06-.23,0-.26-.03-.03,.06,.02,.1,.05,.05,.03,.12,.05,.18,.07,.03,.02,.15,.03,.07,.02,.03,0,.01,0-.01,0,.02,0-.14,0-.21,.01-.1,.01-.34,.05-.47,.12-.12,.03-.25,.07-.35,.12-.09,.04-.25,.12-.23,.11-.08-.07-.17-.16-.24-.19-.07-.03-.12-.03-.15,.03-.02,.03-.02,.07-.03,.13v.21h0v.02c.15-.07-.33,.16,.33-.16,.75-.38,1.15-.39,1.29-.4,.08,0,.05,0,.1,0-.05,0-.08-.02-.12-.03-.1-.03-.17-.06-.26-.11-.15-.06-.25-.14-.4-.25-.21-.13-.32-.25-.6-.48-.13-.11-.25-.23-.37-.37l-.35-.36,.14,.16c-.17-.03-1.06,.28-1.98,.42-.96,.17-1.96,.29-3.06,.35l-.16,.02c-4.97,.53-9.75,1.18-14.65,1.96-4.84,1.52-10.28,2.15-15.39,3.34-2.74,.67-5.59,1.4-8.33,2.15-1.29,.36-2.56,.71-3.79,1.04-.57,.18-1.13,.3-1.67,.41-.54,.11-1.07,.27-1.58,.34-.97,.2-1.7-.27-2.47-.63-1.81,.09-3.81-.19-5.64-.81-.93-.29-1.79-.69-2.56-1.11-.4-.2-.74-.44-1.05-.64l-.3-.2c-.06-.05-.05-.02-.17-.15l-.34-.33c.06,.07,.11,.15,.15,.2-1.86-1.94-2.71-3.88-4.53-5.77-.13,.13-.4-.16-.61-.25,.16-.45-2.73-3.05-5.68-5.64-1.48-1.3-2.97-2.6-4.11-3.64-1.2-1.05-1.57-1.41-1.56-1.62-.13-.1-.21-.2-.31-.3-.01-.06-.03-.12-.05-.18,0-.05,0-.08,0-.12,0-.02,.02-.02,.02-.02-.01,0,.05-.01-.03,0l-.19,.03c-.21,.04-.36,.07-.55,.07-.54,.02-.36-.14,.3,.33,.19,.13,.32,.26,.55,.45,.14,.13,.07,.08,.11,.1h.05c.07,.03,.17,.01,.32,0,.28-.04,.66-.09,1.07-.12,.2-.01,.42-.02,.62-.02,.1,0,.2,0,.25,.02,.04,0,.04,.02,.1,.02h.25c.67-.03,1.33-.07,1.97-.12,1.29-.1,2.53-.25,3.69-.5,.94-.58,2.01-1.13,2.78-1.73,.89,.21,.92-.51,1.93-.6,2.84,1.2,4.18,.23,2.77-.12,2.03-.61,4.14-.84,5.97-1.24l2.48-.86c.7-.27,1.16-.1,1.61,.22,1.82-.58,1.35-.07,3.35-.26,.59,.49,4.73-1.83,5.32-1.76l-.3,.14c2.29-.32,4.03,.53,6.26,.17,1.56-.18,3.15-.42,4.75-.69l2.39-.43,1.06-.24,.52-.12,.45-.07c1.2-.22,2.33-.29,3.3-.21,.97,.07,1.79,.31,2.27,.61,.31-.55-.55-.08-.32-.87,.68,.28,.91,.57,1.09,.94,1.34,1.63,2.75,3.43,4.29,4.97,.34,.55,.67,1.3,.74,1.63,.64,.92,.68,.23,1.21,.84l-.31,.48c1.17,.47,.82,1.63,1.79,2.23,.2-.12,.51,.13,.79,.42-.39,.45,.91,.8,.5,1.16l.04-.02c.17,.17,.32,.26,.46,.53,.47,.16,4.66,1.87,5.17,2l.09,.22c.47,.42,.97,.29,.78-.05l.54,.56-.09-.03,.54,.56c.07,.14,0,.45-.34,.49,.46,.15,.9,.41,1.14,.79-.64-1.11-1.38-2.53-1.9-3.84,.52,.21,.99,1.09,1.45,1.44,.22,.75,1.01,1.96,1.61,2.9,.2,.14,.77-.23,.97,.35-.12,.52,.46,.41,.56,.96-.54-.18-.84-.61-1.2-.98-.31,.46,.68,1.14,.87,1.54,.26,0,.87,.83,1.44,1.16-.56,.19,.15,.59,.23,1.06,.27,.34,.61,.38,.61,.12,.49-.32-1.01-1.42-.17-1.44-.07,.31,.6,.82,.95,1.11,.22-.22-.06-.38,.35-.4,.32,.4,.96,.49,.95,.92-.13,0-.24-.18-.34-.29,.45,.47-3.97-.97-3.23-.52,.03-.35,3.97,1.23,3.67,.92-.19-.38,.59-.21,.36-.57l-.59-.04c-.33-.47-.13-1.02,.16-1.04,.66,.69-3.4-.31-2.6,.01l-.14-.33c.39,.09,1.17,.59,1.21,1.07,.21-.22,.62,.02,.98,.2l.06,.13c.39,.16,.75,.59,.84,.12-1.72-1.56,3.24-1.21,1.72-2.88,.22,1.14-.7,.28-1.48-.34,.09-.23,0-.78-.4-1.4-.48-.39-.43-.07-.64-.03-.14-.35-.53-.89-.23-1.08-.64-.02-.37-.72-.89-1.01-.5-.21-.1,.16-.5,.06-.52-.56-1.26-1.33-1.64-1.81,.06-.4-.06-1.32,.67-1.34,.79,.85-.9,.31,.05,1.05,.15-.91,.92,.58,1.47,.31-.04-.51-.61-1.05-1.14-1.42l.03,.16c-.48-.32-1.43-.99-1.6-1.71,.29-.09,.23-.42,.58-.18l-.54-.58c-.13,0-.26-.02-.14,.19-.41-.11-.6-.44-.7-.76,.13-.26-3.86-2.02-3.65-2.06-.42-.38-.23-.79-.83-.96-.2,.13,4.61,3.02,4,2.58-.14-.56-5.65-3.39-5.54-4.02-.32-.27-.73-.58-.85-.3-.42-.59,.53-.25,.35-.79-.04,.02-.07,.13-.18,.01l-.11-.6c-1.11-.43-1.89-1.97-3.13-2.33,.46,0,1.11-.13,1.84,.18v.2c.13,0,.64,.36,.83,.14-.38-.62-.86-1-1.59-1.31-.05-.15-.11-.32-.13-.45-.02,.03-.04,.06-.07,.09-.05-.3-.02-.3,.13-.32,.02,0,.05-.01,.08-.01,.25-.91-2.38-1.52-3.02-2.72-.36-.17-.12,.08-.58-.13-.4-.63-.7-1.12-1.09-1.68-.4-.56-.92-1.08-1.62-1.59-.71,.02-.78,.14-.39,.79-.35-.26-.73-.49-1.09-.69,.73-.18,.29-.67-.2-1.1-.48-.44-1-.83-.19-1.07-.31-.33-1.13-.65-1.91-.64-.12,.24-.33,.54-1.22,.42-1.22-.5-.93-.32-1.95-.7-.24-.33,.16-.43,.13-.68-.85,.15-1.18,.02-1.53-.2-.35-.21-.71-.47-1.47-.36-.98,.13-2.78,.5-2.72,1.04-1.12,.21-1.19-.18-1.17-.65Z"/></g><g><path class="c" d="M91.6,101.39s-.19,7.15-8.47,2.64c0,0-17.9-22.59-26.64-25.79,0,0-23.43-8.28-12.32-17.32,0,0,13.93-5.31,31.25,19.56l16.19,20.91Z"/><path class="c" d="M73.58,84.9l-.38-.48c1.41,1.37,2.68,3,3.88,4.62-.78-2.24-1.82-4.6-3.34-6.36-.79-.87-1.67-1.59-2.7-2.06-1.05-.46-2.23-.66-3.53-.5,.57-.92,.13-2.3-.52-3.44-.66-1.13-1.67-1.98-1.84-1.8-.99-.3-2.18-.64-3.25-1.01,.73,.28,1.49,.55,2.23,.8-.75-.26-1.51-.53-2.23-.8l-.64-.22-.78-.23-1.54-.46c-.61-.2-.74-.16-1.09-.25-.31-.06-.62-.14-.94-.23-1.26-.35-2.49-.88-3.66-1.51-1.16-.64-2.26-1.39-3.2-2.21-.94-.81-1.73-1.72-2.14-2.47-.16-.26-.3-.57-.33-.75,0-.03,.01-.06,0-.09-.03,0,.06-.02-.03,.02l-.2,.09c-.14,.06-.28,.11-.44,.16l-.23,.06-.13,.05c-.09,.03-.19,.06-.3,.07-.29,.04-.26,.05-.38,.05h-.08s-.05,0-.02,0c.03,0,.05,0,.07,0,.04,0,0,0,.08,.02,.1,.02,.19,.04,.28,.07,.09,.03,.16,.06,.23,.1,.16,.05,.32,.11,.47,.18,.31,.14,.5,.3,.96,.55,0,.07,.42-.21,.8-.44l-1.96,1.13-.16,.07-.08,.03h-.03c.58,1.9-.8-2.56-.65-2.1h0v.03l.07,.18c.16,.48,.31,.96,.45,1.44,.19,.69,.11,.44,.13,.5-.01,0,.02,0,.04,.01l.24,.03c.22,.04,.4,.03,.64,.09,.42,.06,.86,.23,1.17,.33,.28,.1,.57,.25,.86,.35-.46-.25-.48-.3-.94-.52,1.28-.43,2.8-.64,4.26-.42-.13-.37-.06-.66-.51-1.28l.65,.46c.24-.15,.52-.22,.82-.24,.3,0,.61,.06,.92,.13,.62,.16,1.24,.3,1.69,.39-.38,.31,.13,.73,.59,1.09l-.04-.38c.44,.34,.93,.61,1.41,.94,.48,.35,.97,.68,1.47,1,1.01,.6,1.91,1.4,2.68,2.08,.22,.19,.26,.46,.25,.66,.58,.32,1.1,.76,1.66,1.14-.54,.33,.77,1.56-.17,1.15,1.59,.51,2.24,2.01,3.75,2.62,.43,.49,.87,.96,1.31,1.47,.43,.53,.86,1.06,1.29,1.59,.89,1.06,1.76,2.11,2.76,3.18,1.97,2.12,4.05,4.19,6.21,6.14l.1-.25c1.55,1.34,3.6,1.99,4.77,4.16,1.72,.87,3.57,2.56,5.01,2.32,1.36,1.47,2.36,1.71,3.82,3.05,.2-.79,1.77,1.03,1.57-.03-.09-1.57-.73-1.16-.83-2.47l-.15,.16c-2.38-4.64-5.08-9.02-8.01-13.3-1.28-1.21-2.4-2.62-3.5-4.07l-1.64-2.19c-.55-.74-1.13-1.53-1.72-2.25-.66-.77-1.33-1.56-2.01-2.35-.76-.78-1.53-1.54-2.29-2.28-1.47-1.51-3.17-2.79-4.61-3.9-.71-.5-.87-1.27-1.23-2.01-2.65-2.11-6.24-4.91-10.13-6.37,.07,.04,.13,.08,.17,.11-.51-.21-.94-.46-1.39-.69-.46-.22-.89-.46-1.32-.69-.44-.23-.86-.48-1.35-.66-.49-.18-1-.34-1.56-.45-.03,.18-.37,.1-.56,.15-.03-.15-.37-.27-.95-.35-.58-.07-1.35-.18-2.31-.12-.47,.02-.96,.04-1.48,.1-.53,.07-1.07,.16-1.62,.25-.57,.14-1.11,.25-1.69,.44l-.87,.29-.47,.18-.63,.26-.95,.39-.27,.32c-.45,.52-.86,.97-1.24,1.46-.37,.53-.71,.95-.99,1.42l-.68,1.15c-.17,.33-.29,.55-.38,.62-.1,.31-.22,.59-.3,.95-.7,1.52-.94,3.51-.69,5.23,.25,1.75,.85,3.23,1.52,4.49,1.36,2.45,2.98,4.17,4.63,5.23,.93,.17,1.89,.36,2.7,.31,.37,.65,.84,.1,1.45,.56,.91,2.44,2.3,2.29,1.65,1.31,1.52,.51,2.89,1.28,4.21,1.76l.98,.18,.51,.08,.27,.04,.16,.02c.35,.02,.42,.33,.38,.76,.21,.03,.33,.05,.44,.12,.11,.08,.17,.16,.23,.25,.11,.19,.2,.42,.6,.77-.03,.16,.13,.27,.39,.37,.27,.13,.65,.25,1.03,.37,.78,.21,1.62,.44,1.7,.64l-.21-.07c1.07,1.03,1.04,2.51,2.07,3.54,2.66,3.04,6.11,6.05,8.56,9.08,.49-.39-.68-.54-.1-1.13,1.47,1.77,2.41,4.04,3.84,5.86,.14,.43,.23,1.02,.21,1.29,.3,.71,.51,.14,.8,.61l-.38,.42c.86,.31,.26,1.28,.91,1.71,.2-.11,.39,.08,.55,.29-.45,.39,.54,.6,.1,.91l.04-.02c.09,.13,.19,.19,.23,.4,.06,.01,.25,.09,.59,.32l2.33,1.97c.55-.02,1.57,.03,2.46,.05,1.01,0,1.9-.03,2.11-.07,.06,.05,.11,.11,.19,.16,.75,.17,1.15-.2,.76-.4l.88,.23-.11,.02,.44,.1,.52,.07c.19,.07,.4,.36,.06,.6,.67-.17,1.28-.21,2.07-.22-.26-.02-.53-.04-.78-.08l-.68-.18c-.44-.14-.95-.28-1.32-.48-.71-.41-1.48-.84-1.91-1.34,.47,0,1.44,.51,2.05,.57,.33,.26,1.01,.49,1.75,.68,.39,.08,.89,.1,1.34,.11,.24,0,.47,0,.7,0,.25-.03,.5-.07,.74-.12,.2-.09,.31-.31,.48-.52,.17-.2,.4-.4,.89-.53,.65,.14,.95-.57,1.72-.88-.49,.83-1.45,1.29-2.31,1.66,.18,.24,.78,.05,1.4-.3,.65-.33,1.2-.86,1.54-1.08,.09-.19,.49-.6,.86-1.1,.41-.52,.74-1.09,.9-1.58,.13,.32,.3,.17,.5-.12,.18-.27,.36-.68,.6-.91,.26-.59,.15-1.02-.09-.83-.26-.16-.46,.36-.76,.84-.28,.47-.54,.83-.64,.32,.17-.04,.34-.35,.49-.73,.13-.36,.22-.79,.27-1.08-.3-.08-.32,.33-.52-.1,.21-.61-.07-1.27,.28-1.67,.07,.14,0,.44-.04,.61,.06-.4,.48,.74,.57,2.03,.06,.64,.01,1.35-.03,1.81-.06,.47-.07,.68,.06,.33-.19,.1,.13-1.53-.04-2.78-.06-.64-.17-1.23-.29-1.66-.06-.23-.1-.38-.14-.58-.04-.13-.07-.08-.07-.06-.05,.24-.11,.3-.17,.28-.06,0-.12-.08-.19-.16-.06-.08-.13-.16-.18-.14-.06-.03-.1,.07-.14,.26l.31,.63c-.21,.68-.82,.8-.97,.54,.11-.5,.54,.29,.74,1.27,.11,.48,.12,1.03,.15,1.36,0,.34,0,.49,.08,.17l-.36,.38c.12-.58,.37-1.77,.79-2.12-.28-.09-.24-.68-.27-1.16l.08-.16c-.04-.25-.02-.55-.06-.78-.02-.09-.04-.23-.09-.28-.05-.05-.12-.02-.23,.11-.14,1.51-.86,.79-1.59,.33-.37-.26-.77-.47-1.09-.51-.32-.01-.55,.13-.66,.57,.77-.69,.7,.37,.49,1.26-.25,.01-.68,.28-1.11,.73-.21,.49,.06,.4,.16,.58-.32,.19-.78,.58-1,.27-.02,.59-.64,.29-.96,.63-.28,.4,.12,.14-.06,.49-.32,.14-.73,.24-1.11,.32-.38,.02-.74,.04-.99,.01-.22-.34-.67-.96-.3-1.45,.36,.06,.3,.27,.23,.45-.07,.17-.14,.38,.29,.27-.42-.73,.73-.26,.67-.92-.15-.12-.31-.16-.5-.18-.18-.02-.35,.07-.55,.08l.08,.11c-.17,.04-.43,.08-.7,.07-.27-.03-.54-.18-.67-.41,.15-.24,.04-.47,.29-.48l-.42-.14c-.08,.07-.16,.14-.05,.23-.27,.14-.46-.07-.57-.27,.02-.11-.36-.08-.85-.08l-1.54-.04,.14,.12c-.27-.15-.44-.24-.38-.25-.25-.3,.02-.64-.45-.76-.08,.05,.42,.44,1.02,.87l-.21-.18c.51,.09,1.06,.17,1.44,.21,.38,.04,.6,0,.46-.01-.07-.13-.85-.27-1.79-.41l.28,.24c-1.07-.75-2.28-1.55-2.13-1.85-.2-.21-.47-.44-.65-.21-.21-.47,.51-.23,.5-.68-.04,.02-.09,.11-.16,.02l.06-.49c-.83-.31-1.12-1.53-2.08-1.77,.39-.02,.97-.17,1.52,.04l-.06,.17c.11,0,.47,.26,.68,.07-.17-.5-.48-.79-1.03-1,0-.12-.02-.26,0-.37-.03,.03-.05,.05-.08,.08,.03-.24,.06-.25,.18-.28,.02,0,.05-.01,.07-.01,.44-.78-1.67-1.12-1.93-2.09-.27-.12-.12,.07-.46-.07-.36-.91-.59-1.56-1.08-2.41-.48,.01-.6,.09-.63,.62l-.4-.62c1.16-.15-.24-1.62,.97-1.73,.02-.31-.24-.66-.64-.86-.21,.13-.54,.35-.88-.04-.26-.74-.23-.54-.41-1.19,.13-.32,.37-.24,.54-.43-.93-.4-.05-1.06-.7-1.66-.44-.34-1.24-1.09-1.65-.73-.5-.55-.21-.83,.16-1.09Z"/></g><path class="d" d="M144.12,105.97l-23.72-22.4s-3.76-4.14-13.36-1.69l-44.99,8.28s-10.16,1.88-3.01,9.04l14.87,16.75s6.51,7.15,21.79,3.95l40.51-8.09s9.98-1.51,7.91-5.84Z"/><path class="d" d="M63.13,103.8s6.64,58.81,10.33,63.04c2.02,2.32,7.6,11.22,27.74,8.96,0,0,27.48-1.88,30.31-16l6.13-48.28"/><path class="d" d="M91.6,102.02s-.19,7.15-8.47,2.64c0,0-17.9-22.59-26.64-25.79,0,0-23.43-8.28-12.32-17.32,0,0,13.93-5.31,31.25,19.56l16.19,20.91Z"/><path class="d" d="M87.27,90.39s29.57-4.99,41.58,8.22c1.49,1.63,1.49,4.15-.06,5.73-4.39,4.5-16.85,11.94-49.06,5.52-.97-.19-1.91-.5-2.81-.91-1.37-.62-3.46-1.67-5.31-3.01-3.11-2.25-3.28-6.91-.31-9.34s7.74-4.98,15.97-6.21Z"/></svg>